<svg width="767" height="604" viewBox="0 0 767 604" fill="none" xmlns="http://www.w3.org/2000/svg">
<path d="M393.443 169.568C392.03 167.975 389.237 168.625 387.392 168.804C384.216 169.112 381.041 169.699 378.547 171.837C374.59 175.2 371.831 184.681 376.668 188.334C381.689 192.114 389.519 190.39 392.695 185.237C394.623 182.104 395.039 178.48 395.072 174.873C395.072 173.546 395.106 172.194 393.992 171.253C393.011 170.415 391.531 170.804 390.6 170.04C389.47 169.125 385.663 170.736 386.776 171.649C387.674 172.374 388.422 172.209 389.37 172.698C391.598 173.834 391.016 177.002 390.783 179.112C390.234 184.065 386.361 190.41 380.625 186.809C377.367 184.754 378.231 179.853 379.262 176.75C380.243 173.762 382.005 171.827 385.197 171.233C385.929 171.097 389.087 170.568 389.619 171.175C390.55 172.241 394.49 170.761 393.443 169.568" fill="#082B2B"/>
<path d="M381.341 169.376C374.857 165.526 371.881 154.129 370.701 147.233C369.304 139.162 369.753 131.755 373.577 124.4C376.686 118.409 381.906 115.923 388.639 114.759C390.119 114.502 391.565 114.68 392.995 114.051C394.724 113.303 395.672 111.892 397.151 110.856C402.821 106.866 410.834 106.941 415.422 112.277C419.429 116.954 423.203 121.305 427.542 125.729C433.311 131.616 430.534 141.262 427.093 147.649C423.519 154.296 418.664 160.605 412.762 165.389C408.972 168.46 401.707 174.989 396.536 175.383C394.525 175.537 393.128 177.877 395.971 177.659C402.538 177.158 409.171 171.217 414.175 167.511C421.972 161.75 428.473 153.398 432.596 144.701C434.441 140.794 435.023 136.651 434.741 132.334C434.408 127.333 433.078 125.717 429.537 122.651C423.236 117.197 419.529 107.132 410.584 105.814C407.525 105.361 404.284 105.81 401.308 106.567C397.534 107.518 395.855 109.415 392.729 111.268C389.47 113.208 384.998 112.156 381.391 113.378C378.099 114.502 375.389 116.342 373.178 119.026C367.16 126.354 364.949 135.77 366.079 145.022C367.11 153.471 370.169 166.673 378.066 171.366C379.213 172.049 383.003 170.369 381.341 169.376" fill="#082B2B"/>
<path d="M393.578 178.583C396.554 179.481 401.807 175.847 404.151 174.646C410.801 171.256 418.848 168.339 424.717 163.616C429.022 160.136 432.863 155.802 438.881 155.366C445.781 154.867 452.297 158.553 452.414 165.838C452.464 168.633 451.782 171.238 453.062 173.886C454.509 176.902 458.881 179.561 461.292 181.818C465.531 185.79 468.823 189.306 464.733 195.223C462.938 197.818 459.613 201.413 457.435 203.619C454.126 206.954 444.899 212.113 439.912 210.902C437.485 210.31 435.606 208.957 432.963 208.551C428.457 207.86 423.17 207.926 418.931 206.054C414.941 204.29 410.718 202.196 406.878 200.124C402.422 197.728 398.432 193.93 394.875 190.369C392.846 188.34 391.466 185.421 389.189 183.758C388.008 182.906 384.235 184.548 385.365 185.368C388.524 187.667 390.918 191.742 393.894 194.46C398.615 198.761 402.589 201.577 408.357 204.299C411.965 205.998 415.34 208.325 419.23 209.253C425.099 210.656 430.868 211.243 436.637 212.892C443.287 214.791 450.369 211.399 456.105 207.876C459.097 206.038 461.275 203.644 463.47 200.992C465.797 198.199 470.352 195.067 471.167 191.295C472.198 186.601 468.806 183.594 465.814 180.919C461.308 176.882 456.387 173.877 456.404 167.3C456.421 159.365 452.896 154.106 444.451 153.065C436.62 152.099 430.319 155.378 424.367 160.094C419.23 164.159 414.126 166.804 408.341 169.843C404.816 171.699 401.009 173.308 397.584 175.325C396.604 175.908 394.442 175.847 396.105 176.35C394.791 175.955 391.284 177.888 393.578 178.583Z" fill="#082B2B"/>
<path d="M389.783 186.317C389.667 186.38 389.567 186.443 389.468 186.507C389.168 186.688 388.487 187.205 388.686 187.665C391.446 193.805 397.813 196.324 402.818 200.285C406.159 202.942 408.936 206.157 412.227 208.909C415.436 211.582 418.279 214.764 420.673 218.179C425.86 225.599 428.886 234.794 423.715 243.13C419.094 250.588 412.244 250.377 404.53 249.76C402.186 249.572 400.507 249.64 398.262 250.506C396.034 251.373 393.99 252.905 392.211 254.485C388.038 258.182 381.937 258.899 377.83 254.713C371.064 247.831 374.239 238.147 374.738 229.567C375.22 220.997 375.32 212.265 376.184 203.712C376.633 199.363 377.697 196.329 380.407 192.96C381.986 190.985 383.981 189.487 385.062 187.143C385.644 185.913 381.571 186.33 380.956 187.659C379.376 191.063 375.386 192.851 373.724 196.181C371.995 199.65 372.094 204.558 371.895 208.375C371.313 219.855 369.767 231.303 369.601 242.766C369.501 250.046 371.812 257.901 379.825 260.202C386.209 262.034 390.947 258.797 395.519 255.16C400.224 251.394 406.309 253.929 411.812 253.022C414.937 252.503 418.063 251.466 420.789 249.803C426.99 246.016 430.532 239.57 430.498 232.329C430.465 223.025 423.616 213.928 416.899 208.031C412.876 204.487 409.152 200.493 404.796 197.346C403.981 196.744 392.344 187.531 392.327 187.537C394.705 186.101 391.113 185.509 389.783 186.317" fill="#082B2B"/>
<path d="M382.24 170.766C381.575 165.922 377.967 162.884 374.359 159.927C370.353 156.653 366.778 152.967 362.805 149.689C355.473 143.622 346.745 142.203 337.501 142.715C333.628 142.931 330.519 144.05 326.745 144.951C320.727 146.382 315.872 144.622 309.921 144.989C300.743 145.558 296.604 150.52 296.271 159.744C296.122 163.827 296.737 168.109 299.58 171.24C302.306 174.239 306.429 175.021 309.339 177.646C315.091 182.811 314.293 190.304 323.42 192.121C332.065 193.845 342.389 191.069 350.569 188.377C355.772 186.668 360.893 184.725 366.08 182.969C367.643 182.442 370.12 181.775 371.666 180.886C373.378 179.895 374.476 178.045 376.254 177.13C378.698 175.873 375.057 175.217 373.694 175.912C371.151 177.223 369.571 179.17 366.878 180.422C363.719 181.88 360.062 182.615 356.786 183.83C347.959 187.107 337.834 190.942 328.241 190.02C324.168 189.627 320.427 188.063 318.166 184.497C316.554 181.935 316.188 178.904 314.193 176.507C310.22 171.752 303.32 172.178 300.993 165.115C299.713 161.225 299.862 153.705 302.522 150.161C306.546 144.774 314.193 148.015 319.364 148.359C325.482 148.763 330.918 145.443 336.986 145.029C346.878 144.352 354.924 147.278 362.023 154.149C367.21 159.183 377.053 164.121 378.117 171.868C378.316 173.243 382.439 172.306 382.24 170.766" fill="#082B2B"/>
<path d="M376.553 178.808C376.537 178.678 376.503 178.547 376.47 178.415C376.37 177.916 375.622 177.803 375.223 177.802C371.466 177.778 367.908 179.351 364.35 180.513C359.03 182.257 353.561 183.92 348.407 186.154C338.748 190.347 328.091 195.132 319.513 201.336C312.713 206.259 305.248 214.447 304.268 223.256C303.852 226.98 304.916 229.26 307.725 231.605C309.272 232.891 311.433 234.279 313.361 234.881C314.226 235.15 316.553 235.035 317.285 235.389C320.959 237.201 322.206 242.102 326.379 243.87C329.804 245.319 334.392 245.565 338.05 245.201C346.096 244.403 355.19 239.662 361.474 234.841C368.507 229.456 372.114 221.183 375.007 213.045C376.653 208.412 377.95 203.664 379.413 198.967C380.56 195.255 382.455 191.354 381.674 187.393C381.607 187.067 381.158 186.876 380.876 186.826C380.759 186.804 380.626 186.781 380.493 186.756C379.18 186.523 375.655 188.578 377.966 188.99C378.631 189.107 373.561 205.07 373.079 206.63C370.801 214.031 368.374 221.599 364.101 228.144C359.729 234.824 349.654 240.142 341.99 242.294C336.154 243.928 329.255 242.852 325.049 238.37C323.436 236.654 322.888 234.398 320.809 233.23C318.532 231.95 315.356 232.332 312.863 230.871C308.357 228.247 307.576 224.092 309.205 219.353C311.982 211.303 318.499 204.693 325.664 200.304C333.046 195.783 341.075 191.933 348.956 188.344C350.502 187.637 372.547 180.415 372.447 179.91C372.729 181.318 376.869 180.299 376.553 178.808" fill="#082B2B"/>
<path d="M335.521 156.939C344.249 155.534 354.224 159.138 362.321 162.778C366.311 164.571 376.319 171.925 377.483 176.345C377.532 176.565 377.815 176.686 378.015 176.723C378.131 176.746 378.264 176.769 378.397 176.792C379.261 176.952 381.606 175.587 380.059 175.303C380.907 175.457 377.765 171.318 377.782 171.344C376.535 170.078 374.64 169.226 373.276 168.041C369.685 164.939 367.142 162.403 362.57 160.664C353.36 157.165 345.845 153.822 335.903 155.421C334.59 155.632 333.626 157.245 335.521 156.939" fill="#082B2B"/>
<path d="M380.061 176.722C375.672 175.552 371.682 173.225 367.326 171.886C361.64 170.146 355.822 169.098 349.986 167.953C340.327 166.048 330.236 163.544 320.311 164.505C320.028 164.533 318.432 165.005 318.748 165.63C318.897 165.915 319.047 166.197 319.197 166.481C319.695 167.411 322.355 166.521 321.94 165.747C321.79 165.462 321.64 165.18 321.491 164.897C320.975 165.271 320.46 165.647 319.945 166.023C330.751 164.975 342.339 168.139 352.862 170.38C357.75 171.421 362.671 172.307 367.409 173.918C371.167 175.188 374.558 177.19 378.398 178.21C379.263 178.443 381.607 177.131 380.061 176.722" fill="#082B2B"/>
<path d="M375.508 173.38C366.78 173.265 358.584 172.882 349.889 174.42C341.493 175.906 332.616 179.15 324.104 179.527C323.139 179.571 321.161 181.082 323.04 181.082C323.139 181.082 323.256 181.082 323.356 181.082C324.386 181.082 326.265 179.527 324.42 179.527C324.32 179.527 324.22 179.527 324.104 179.527C323.755 180.046 323.405 180.563 323.04 181.082C329.873 180.778 337.038 178.585 343.705 177.212C354.162 175.055 363.838 174.794 374.444 174.932C375.475 174.947 377.354 173.403 375.508 173.38" fill="#082B2B"/>
<path d="M374.341 178.661C367.791 185.14 360.41 189.96 352.729 194.977C346.145 199.275 339.711 205.932 331.748 207.529C330.069 207.867 330.451 209.233 332.114 208.899C339.761 207.363 346.228 201.444 352.413 197.12C360.858 191.24 369.154 186.409 376.536 179.11C377.683 177.993 374.99 178.023 374.341 178.661Z" fill="#082B2B"/>
<path d="M373.614 181.423C370.322 189.539 366.698 197.898 362.225 205.469C358.036 212.571 350.272 217.273 346.731 224.743C346.182 225.926 348.909 225.614 349.291 224.799C353.132 216.664 361.644 211.494 365.916 203.408C369.79 196.086 373.248 188.738 376.34 181.079C376.706 180.207 373.963 180.518 373.614 181.423Z" fill="#082B2B"/>
<path d="M384.022 187.572C380.531 207.757 377.522 227.783 386.849 246.897C387.314 247.836 389.991 246.967 389.592 246.162C380.348 227.225 383.291 207.268 386.749 187.228C386.932 186.177 384.172 186.636 384.022 187.572Z" fill="#082B2B"/>
<path d="M387.328 188.043C387.195 188.046 387.078 188.05 386.945 188.053C386.43 188.066 385.133 188.294 385.033 189.001C383.853 197.747 387.627 206.238 390.769 214.173C392.698 219.029 396.92 228.72 402.274 230.638C403.088 230.934 405.582 229.715 404.452 229.311C402.29 228.538 400.378 225.439 399.048 223.639C396.222 219.877 394.377 215.657 392.714 211.303C389.955 204.05 386.696 196.622 387.777 188.658C387.145 188.974 386.513 189.29 385.881 189.607C386.014 189.604 386.131 189.601 386.264 189.597C387.295 189.571 389.173 187.995 387.328 188.043Z" fill="#082B2B"/>
<path d="M389.919 184.375C398.88 183.737 408.555 183.275 417.25 180.894C424.116 179.012 430.65 175.654 436.851 172.197C438.447 171.3 436.037 170.884 435.139 171.385C428.389 175.152 421.141 178.831 413.493 180.234C405.895 181.627 397.999 182.309 390.301 182.857C388.938 182.954 388.024 184.51 389.919 184.375" fill="#082B2B"/>
<path d="M393.794 184.292C393.678 184.276 393.561 184.261 393.445 184.247C392.946 184.178 390.253 185.072 391.517 185.654C395.307 187.398 398.399 190.487 402.473 192.048C406.546 193.606 411.101 194.562 415.423 195.016C423.802 195.897 433.378 195.998 441.275 192.695C443.038 191.957 441.425 191.049 440.178 191.569C432.049 194.981 420.344 194.444 411.733 192.676C407.693 191.845 403.67 190.547 400.029 188.575C397.768 187.351 396.005 185.383 393.711 184.329C393.063 184.798 392.414 185.267 391.766 185.735C391.882 185.75 391.999 185.765 392.115 185.78C392.98 185.897 395.324 184.497 393.794 184.292" fill="#082B2B"/>
<path d="M384.101 171.129C378.548 167.303 378.132 160.329 377.816 154.056C377.6 149.93 376.104 139.439 379.562 136.445C378.747 136.492 377.916 136.54 377.101 136.588C377.184 136.776 377.284 136.964 377.384 137.154C377.866 138.086 380.526 137.203 380.127 136.419C380.027 136.229 379.928 136.041 379.844 135.853C379.412 135.029 377.899 135.539 377.367 135.996C373.776 139.102 374.923 148.011 375.023 152.331C375.189 159.93 375.273 167.872 381.923 172.454C382.654 172.957 385.181 171.873 384.101 171.129" fill="#082B2B"/>
<path d="M387.225 171.897C386.66 165.032 387.741 157.824 389.736 151.245C390.035 150.271 397.516 134.726 397.816 134.957C398.597 135.544 401.124 134.459 400.376 133.883C400.093 133.671 399.811 133.456 399.528 133.242C399.046 132.863 398.248 132.969 397.716 133.213C393.194 135.295 390.367 142.927 388.605 147.15C385.297 155.026 383.801 164.121 384.482 172.631C384.549 173.521 387.308 172.942 387.225 171.897" fill="#082B2B"/>
<path d="M392.813 172.292C394.027 170.711 397.219 169.371 398.782 167.998C401.525 165.582 403.753 162.877 405.814 159.862C408.291 156.256 410.386 152.124 412.265 148.189C413.545 145.506 414.326 140.457 416.986 139.084C418.616 138.242 416.172 137.805 415.274 138.271C413.412 139.232 412.78 140.966 411.916 142.839C410.17 146.616 408.508 150.362 406.596 154.059C404.152 158.761 401.309 163.217 397.369 166.846C395.124 168.926 392.115 169.825 390.253 172.236C389.505 173.195 392.248 173.002 392.813 172.292" fill="#082B2B"/>
<path d="M0 307.445C4.63796 313.553 10.1809 323.734 13.4614 329.843L36.0856 375.43C38.4612 380.408 40.158 383.462 41.1761 386.516H44.2303L75.4518 320.227C77.3748 316.381 79.9766 311.517 82.5784 307.445H68.7776C69.6826 312.988 67.6464 319.888 66.9677 321.924L46.6059 372.263L23.3029 323.96C21.9455 321.019 18.0994 311.517 18.7781 307.445H0Z" fill="#082B2B"/>
<path d="M111.484 299.865C114.086 299.865 116.235 297.716 116.235 295.001C116.235 292.399 114.086 290.25 111.484 290.25C108.769 290.25 106.62 292.399 106.62 295.001C106.62 297.716 108.769 299.865 111.484 299.865ZM130.715 299.865C133.317 299.865 135.466 297.716 135.466 295.001C135.466 292.399 133.317 290.25 130.715 290.25C128 290.25 125.851 292.399 125.851 295.001C125.851 297.716 128 299.865 130.715 299.865ZM84.7878 386.629H98.5886C97.6836 380.973 100.172 374.073 100.851 372.15L105.15 362.421H141.235L145.421 371.924C147.004 375.996 149.38 383.575 148.136 386.629H168.045C163.859 382.444 159.787 374.978 157.412 370.227L132.412 316.947C130.602 312.988 129.357 310.159 128.453 307.558L110.579 307.445V307.671C115.33 310.499 118.498 313.666 120.534 317.173L93.1587 372.15C91.0094 375.996 87.7289 381.878 84.7878 386.629ZM107.186 357.67L122.91 321.811L126.303 329.39L139.086 357.67H107.186Z" fill="#082B2B"/>
<path d="M180.853 386.629V386.064C184.473 382.67 187.075 379.842 190.129 376.109L213.319 345.227L200.536 326.788C197.821 323.282 190.129 313.44 184.134 308.123V307.445H203.364C204.722 311.291 207.324 315.702 209.473 319.096L212.64 323.621L213.093 324.187L222.708 338.1L237.866 317.399C240.129 314.006 242.504 310.838 243.749 307.445H253.703V308.01C250.083 311.404 247.482 314.232 244.427 318.078L225.875 342.625L242.052 365.928C242.052 365.928 252.006 379.39 259.585 385.951V386.629H240.242C238.997 382.896 236.509 378.711 234.359 375.43L230.513 370.001L216.486 349.639L196.69 376.788C194.315 380.068 192.052 383.349 190.808 386.629H180.853Z" fill="#082B2B"/>
<path d="M269.11 322.603L269.902 323.055C274.879 315.137 286.87 312.422 299.652 311.63C300.444 314.571 301.123 319.322 301.123 326.675L300.557 367.512C300.557 382.331 297.616 386.629 297.616 386.629H314.811C314.811 386.629 311.417 382.331 311.417 367.512L311.191 326.675C311.191 319.435 311.87 314.684 312.548 311.743C325.218 312.761 338.227 315.476 342.865 323.055L343.657 322.603L340.942 307.105L306.44 307.445L271.825 307.105L269.11 322.603Z" fill="#082B2B"/>
<path d="M352.673 386.629H363.306L408.441 387.082L413.419 369.887L412.627 369.435C402.22 381.086 381.179 382.105 367.039 382.105C366.7 379.163 366.473 374.525 366.473 367.512L366.247 326.675C366.247 311.743 369.188 307.445 369.188 307.445H353.238C353.238 307.445 356.179 311.743 356.179 326.675L355.614 367.512C355.614 382.331 352.673 386.629 352.673 386.629Z" fill="#082B2B"/>
<path d="M422.613 307.445C422.726 307.445 425.894 311.743 425.554 326.675L425.102 349.639C424.649 373.281 436.867 388.326 459.717 388.326C489.92 388.326 496.255 365.249 496.255 342.965L496.142 326.675C496.142 311.743 498.97 307.445 499.083 307.445H486.527C486.527 307.445 489.581 311.743 489.468 326.675L489.355 341.607C489.128 364.231 482.794 380.86 463.111 380.86C440.713 380.86 436.867 363.44 436.867 350.77L436.753 326.675C436.753 311.743 439.695 307.445 439.695 307.445H422.613Z" fill="#082B2B"/>
<path d="M514.369 307.445L517.876 311.969C518.555 315.024 519.121 319.662 519.121 326.675L518.668 367.512C518.668 382.331 515.953 386.629 515.953 386.629H528.51C528.51 386.629 525.455 382.331 525.455 367.512L525.229 326.675C525.229 324.865 525.229 323.168 525.342 321.698L575.229 386.629H588.464L586.088 383.462C585.183 380.634 584.278 375.657 584.278 367.512L584.052 326.675C584.052 311.743 586.88 307.445 586.88 307.445H575.229C575.229 307.445 577.944 311.743 577.944 326.675L577.491 367.512L577.378 372.263L527.605 307.445H514.369Z" fill="#082B2B"/>
<path d="M605.397 386.629H617.161V386.742H630.962C661.618 386.742 678.02 366.381 678.02 343.87C678.02 320.793 657.319 307.445 633.111 307.445H605.962C605.962 307.445 608.903 311.743 608.903 326.675L608.338 367.512C608.338 382.331 605.397 386.629 605.397 386.629ZM618.971 326.675C618.971 322.037 619.31 318.417 619.65 315.589C624.062 312.988 629.605 312.309 633.79 312.422C648.156 312.422 665.916 323.395 665.916 347.603C665.916 370.34 650.419 381.991 636.957 381.991C627.795 381.991 622.365 380.747 619.65 376.335C619.424 373.847 619.197 371.019 619.197 367.512L618.971 326.675Z" fill="#082B2B"/>
<path d="M683.645 386.629H697.445C696.54 380.973 699.029 374.073 699.708 372.15L704.006 362.421H740.092L744.277 371.924C745.861 375.996 748.237 383.575 746.992 386.629H766.902C762.716 382.444 758.644 374.978 756.268 370.227L731.269 316.947C729.459 312.988 728.214 310.159 727.309 307.558L709.436 307.445V307.671C714.187 310.499 717.355 313.666 719.391 317.173L692.016 372.15C689.866 375.996 686.586 381.878 683.645 386.629ZM706.043 357.67L721.766 321.811L725.16 329.39L737.943 357.67H706.043Z" fill="#082B2B"/>
<path d="M74.3683 512.147H86.5853C95.635 512.26 100.952 512.26 103.667 512.147C130.024 512.147 143.485 502.758 143.485 489.297C143.598 480.247 136.924 472.216 116.449 470.179C125.612 468.256 135.114 463.166 135.114 451.288C135.114 440.881 123.576 432.962 99.0287 432.962H74.9339C74.9339 432.962 77.875 437.261 77.875 452.193L77.3094 493.03C77.3094 507.849 74.3683 512.147 74.3683 512.147ZM87.9428 452.193C87.9428 445.745 88.5084 441.333 89.074 438.392C92.6939 437.487 97.1056 437.035 100.952 437.035C110.001 437.035 124.255 441.22 124.255 454.116C124.255 463.053 115.431 469.387 104.345 469.387C99.5943 469.274 93.2595 468.369 88.0559 465.881L87.9428 452.193ZM88.0559 472.329C106.382 471.65 130.703 474.704 130.703 492.238C130.703 503.55 119.504 507.17 104.119 507.17C100.725 507.17 92.9201 506.265 88.8478 503.663C88.5084 500.948 88.169 497.442 88.169 493.03L88.0559 472.329Z" fill="#082B2B"/>
<path d="M156.478 512.147H167.112L212.247 512.6L217.224 495.405L216.432 494.953C206.025 506.604 184.985 507.622 170.845 507.622C170.505 504.681 170.279 500.043 170.279 493.03L170.053 452.193C170.053 437.261 172.994 432.962 172.994 432.962H157.044C157.044 432.962 159.985 437.261 159.985 452.193L159.419 493.03C159.419 507.849 156.478 512.147 156.478 512.147Z" fill="#082B2B"/>
<path d="M264.654 513.844C284.902 513.844 306.169 496.537 306.169 471.537C306.169 446.65 288.975 431.605 269.179 431.605C248.93 431.605 227.55 451.175 227.55 476.062C227.55 498.799 244.858 513.844 264.654 513.844ZM269.518 506.378C250.966 506.378 239.088 488.731 239.088 469.274C239.088 451.854 249.156 438.845 264.314 438.845C282.753 438.845 294.631 456.605 294.631 477.306C294.631 494.613 284.676 506.378 269.518 506.378Z" fill="#082B2B"/>
<path d="M321.689 512.147H333.001C332.096 507.736 332.549 499.251 332.888 495.518L337.978 450.044L363.996 512.034H367.277L390.127 451.967L391.032 456.831L396.01 490.089L395.896 490.202C396.801 495.179 397.819 506.944 396.688 512.147H412.412C408.792 501.288 407.435 492.464 406.19 486.469L403.589 470.406H403.702L403.136 467.238L400.647 451.401C399.856 445.406 399.516 439.75 399.403 432.849L383.792 432.962C385.489 435.338 386.96 439.184 388.204 443.596L367.955 494.953L352.684 458.528C349.177 450.044 345.671 441.786 343.295 432.962H327.571C330.626 436.469 332.888 439.863 334.811 443.483L326.214 495.971C325.083 501.175 323.046 509.772 321.689 512.147Z" fill="#082B2B"/>
<path d="M428.513 512.147H439.825C438.92 507.736 439.373 499.251 439.712 495.518L444.803 450.044L470.821 512.034H474.101L496.951 451.967L497.856 456.831L502.834 490.089L502.721 490.202C503.626 495.179 504.644 506.944 503.513 512.147H519.236C515.616 501.288 514.259 492.464 513.015 486.469L510.413 470.406H510.526L509.96 467.238L507.472 451.401C506.68 445.406 506.341 439.75 506.227 432.849L490.617 432.962C492.314 435.338 493.784 439.184 495.028 443.596L474.78 494.953L459.508 458.528C456.002 450.044 452.495 441.786 450.119 432.962H434.396C437.45 436.469 439.712 439.863 441.635 443.483L433.038 495.971C431.907 501.175 429.871 509.772 428.513 512.147Z" fill="#082B2B"/>
<path d="M571.649 513.844C591.898 513.844 613.165 496.537 613.165 471.537C613.165 446.65 595.97 431.605 576.174 431.605C555.926 431.605 534.546 451.175 534.546 476.062C534.546 498.799 551.853 513.844 571.649 513.844ZM576.514 506.378C557.962 506.378 546.084 488.731 546.084 469.274C546.084 451.854 556.152 438.845 571.31 438.845C589.749 438.845 601.626 456.605 601.626 477.306C601.626 494.613 591.672 506.378 576.514 506.378Z" fill="#082B2B"/>
<path d="M627.38 512.147H644.575C644.575 512.147 641.181 507.849 641.181 493.03L641.068 474.591C643.33 474.817 646.724 475.27 650.57 475.496L671.837 500.27C674.778 504.116 679.076 508.075 681.678 511.921H698.873V511.129C692.425 507.396 687.787 503.663 684.733 499.93L663.013 475.609C675.23 474.478 690.389 468.596 690.389 453.551C690.389 438.958 678.85 432.962 652.04 432.962H627.946C627.946 432.962 630.887 437.261 630.887 452.193L630.321 493.03C630.321 507.849 627.38 512.147 627.38 512.147ZM640.955 452.193C640.955 445.745 641.52 441.333 642.086 438.392C645.706 437.487 650.117 437.035 653.964 437.035C665.276 437.035 679.529 441.673 679.529 454.116C679.529 465.315 670.705 471.65 657.357 471.65C652.606 471.537 646.271 470.632 641.068 468.143L640.955 452.193Z" fill="#082B2B"/>
<path d="M109.441 224.47L99.2502 220.95L103.216 209.47L100.115 208.399L96.1488 219.878L87.4488 216.872L92.1106 203.379L89.0092 202.308L83.1646 219.224L111.359 228.965L117.343 211.646L114.242 210.574L109.441 224.47Z" fill="#082B2B"/>
<path d="M128.371 186.823L130.209 182.931L109.826 184.381L102.78 171.158L100.833 175.281L109.867 191.281L96.3024 184.877L94.7559 188.152L121.73 200.888L123.277 197.613L114.683 193.555L111.5 187.622L128.371 186.823Z" fill="#082B2B"/>
<path d="M114.13 150.245C110.021 156.973 114.827 163.903 121.336 167.879C127.846 171.855 136.206 172.966 140.315 166.238C144.424 159.51 139.619 152.58 133.109 148.604C126.599 144.628 118.24 143.517 114.13 150.245ZM137.515 164.527C134.96 168.71 129.116 168.386 123.224 164.788C117.333 161.189 114.376 156.138 116.931 151.956C119.485 147.773 125.329 148.097 131.221 151.695C137.112 155.294 140.069 160.345 137.515 164.527Z" fill="#082B2B"/>
<path d="M151.35 143.091L130.32 126.956L128.082 129.804L151.748 147.962L163.11 133.154L160.507 131.156L151.35 143.091Z" fill="#082B2B"/>
<path d="M154.51 97.4796C149.079 103.194 152.321 110.979 157.851 116.234C163.38 121.489 171.319 124.331 176.75 118.616C182.181 112.902 178.939 105.117 173.41 99.8624C167.88 94.6075 159.941 91.7651 154.51 97.4796ZM174.372 116.356C170.996 119.908 165.35 118.364 160.346 113.608C155.342 108.852 153.512 103.292 156.888 99.7401C160.264 96.1878 165.91 97.7322 170.914 102.488C175.918 107.244 177.748 112.804 174.372 116.356Z" fill="#082B2B"/>
<path d="M192.691 88.4225L197.118 84.4847L197.145 84.5171C200.599 88.5726 199.856 92.5638 196.973 94.9627C193.117 98.1905 188.046 96.9679 182.99 91.0308C177.906 85.0612 177.539 79.8323 181.335 76.5997C184.612 73.8091 187.912 75.2525 190.376 76.5685L191.925 73.4581C189.485 71.8418 184.236 69.819 179.208 74.1015C172.978 79.4064 174.983 87.215 180.232 93.3793C185.648 99.7382 193.034 102.628 199.101 97.4609C200.82 95.9965 202.571 93.3859 201.548 89.5555L204.437 92.3565L206.449 90.6435L197.442 80.0669L190.563 85.9244L192.691 88.4225Z" fill="#082B2B"/>
<path d="M214.509 52.3865L212.657 49.6777L197.882 59.7784L199.734 62.4872L205.644 58.4469L218.775 77.6549L212.864 81.6952L214.716 84.404L229.492 74.3034L227.64 71.5945L221.765 75.6108L208.634 56.4028L214.509 52.3865Z" fill="#082B2B"/>
<path d="M234.822 62.1895C239.511 66.6848 244.259 66.0686 248.163 63.9711C253.344 61.1878 256.104 56.5119 253.341 51.369C250.195 45.5129 244.623 46.668 239.753 48.3173C236.713 49.3217 233.737 49.9049 232.163 46.9768C230.449 43.786 232.379 41.346 235.195 39.8334C237.973 38.3409 240.51 38.3808 243.961 41.6541L246.131 38.9402C242.022 34.7138 237.433 34.9059 233.642 36.9429C228.987 39.4438 226.411 43.9236 228.973 48.6911C231.877 54.0968 237.203 53.0252 241.447 51.4705C245.03 50.126 248.315 49.6673 250.15 53.0833C251.905 56.3493 250.364 59.0637 246.61 61.0806C243.795 62.5932 241.101 63.0727 236.992 59.4756L234.822 62.1895Z" fill="#082B2B"/>
<path d="M280.376 48.6386L284.359 47.0065L268.338 34.3217L272.062 19.8085L267.842 21.5376L263.712 39.4411L258.024 25.5613L254.672 26.9348L265.984 54.5368L269.336 53.1633L265.732 44.3701L267.386 37.8433L280.376 48.6386Z" fill="#082B2B"/>
<path d="M311.037 7.75245C303.355 9.52385 301.766 17.8058 303.48 25.2387C305.194 32.6715 310.249 39.4214 317.931 37.6501C325.613 35.8787 327.202 27.5967 325.488 20.1639C323.774 12.731 318.719 5.98106 311.037 7.75245ZM317.193 34.4527C312.418 35.5538 308.56 31.1517 307.009 24.4248C305.458 17.6978 306.999 12.051 311.774 10.9498C316.549 9.8487 320.407 14.2508 321.958 20.9777C323.509 27.7047 321.969 33.3515 317.193 34.4527Z" fill="#082B2B"/>
<path d="M341.929 2.64342L334.102 3.58307L337.657 33.2003L345.485 32.2607C354.201 31.2143 356.546 23.9368 355.596 16.0248C354.647 8.11276 350.772 1.58188 341.929 2.64342ZM344.967 29.018L340.863 29.5107L338.09 6.40924L342.194 5.91656C349.006 5.09881 351.294 10.5754 352 16.4565C352.706 22.3377 351.779 28.2002 344.967 29.018Z" fill="#082B2B"/>
<path d="M372.182 26.7777L371.773 0.274891L368.15 0.288208L368.611 30.1145L387.274 29.8264L387.223 26.5455L372.182 26.7777Z" fill="#082B2B"/>
<path d="M419.376 5.51349L419.679 2.24625L401.857 0.592163L401.554 3.85941L408.683 4.52104L406.532 27.6888L399.404 27.0271L399.101 30.2944L416.922 31.9485L417.225 28.6812L410.139 28.0235L412.289 4.8558L419.376 5.51349Z" fill="#082B2B"/>
<path d="M450.034 7.48116L445.665 29.9012L437.129 4.86598L434.289 4.29047L428.364 33.5261L431.914 34.2455L436.284 11.8255L444.82 36.8607L447.66 37.4362L453.584 8.20054L450.034 7.48116Z" fill="#082B2B"/>
<path d="M471.684 33.2738L477.37 34.9378L477.357 34.9785C475.751 40.0574 471.974 41.5444 468.411 40.3732C463.63 38.8164 461.976 33.8689 464.327 26.4334C466.691 18.9573 470.929 15.8727 475.683 17.376C479.787 18.6737 480.314 22.237 480.505 25.0239L483.964 24.6873C484.04 21.7615 482.97 16.2389 476.673 14.2474C468.871 11.7805 463.315 17.6214 460.874 25.3413C458.355 33.305 459.824 41.0991 467.422 43.5018C469.575 44.1827 472.717 44.2823 475.422 41.3832L474.579 45.3182L477.099 46.1148L481.287 32.8691L472.673 30.1452L471.684 33.2738Z" fill="#082B2B"/>
<path d="M530.241 37.2902L512.561 55.1163L516.569 30.3313L513.151 28.5916L508.697 59.7959L511.089 61.0137L533.659 39.0299L530.241 37.2902Z" fill="#082B2B"/>
<path d="M556.674 57.1983L558.456 54.4429L543.426 44.7244L541.645 47.4798L547.656 51.3672L535.022 70.9056L529.011 67.0182L527.229 69.7737L542.258 79.4921L544.04 76.7367L538.064 72.8725L550.698 53.3341L556.674 57.1983Z" fill="#082B2B"/>
<path d="M576.277 67.6787L570.146 62.7219L551.391 85.9177L557.521 90.8746C564.347 96.3941 571.2 93.0023 576.21 86.8057C581.221 80.6091 583.202 73.2786 576.277 67.6787ZM559.485 88.2426L556.271 85.6436L570.9 67.5509L574.114 70.1499C579.449 74.4637 577.118 79.9222 573.394 84.5282C569.669 89.1343 564.82 92.5564 559.485 88.2426Z" fill="#082B2B"/>
<path d="M618.105 107.585L609.094 115.664L601.698 107.414L610.709 99.3355L608.292 96.6385L586.081 116.551L588.499 119.248L599.255 109.605L606.651 117.854L595.895 127.498L598.313 130.195L620.523 110.282L618.105 107.585Z" fill="#082B2B"/>
<path d="M615.707 153.038L617.952 156.147L636.078 130.292L634.506 128.115L604.234 137.144L606.478 140.253L615.515 137.409L621.251 145.356L615.707 153.038ZM618.764 136.378L630.442 132.678L623.254 142.597L618.764 136.378Z" fill="#082B2B"/>
<path d="M657.233 163.812L632.669 169.006L649.626 150.49L647.724 147.16L626.871 170.796L628.202 173.128L659.135 167.143L657.233 163.812Z" fill="#082B2B"/>
<path d="M642.105 192.782L651.988 188.471L656.844 199.603L659.851 198.291L654.995 187.159L663.432 183.479L669.14 196.564L672.148 195.252L664.991 178.847L637.65 190.774L644.976 207.57L647.984 206.258L642.105 192.782Z" fill="#082B2B"/>
<path d="M683.953 229.757L677.479 209.011L674.346 209.988L677.05 218.653L651.707 226.562L652.786 230.019L678.129 222.111L680.821 230.735L683.953 229.757Z" fill="#082B2B"/>
<path d="M265.269 573.744L257.598 597.651L249.928 573.744H246.092L256.277 603.574H258.962L269.104 573.744H265.269Z" fill="#082B2B"/>
<path d="M283.608 600.293V589.511H295.753V586.23H283.608V577.025H297.883V573.744H279.985V603.574H298.31V600.293H283.608Z" fill="#082B2B"/>
<path d="M309.958 596.116C311.961 602.295 316.436 604 320.867 604C326.748 604 331.393 601.187 331.393 595.349C331.393 588.702 325.938 587.082 320.867 586.23C317.714 585.676 314.816 584.781 314.816 581.457C314.816 577.835 317.671 576.599 320.867 576.599C324.021 576.599 326.237 577.835 327.728 582.352L330.924 580.988C329.305 575.321 325.171 573.318 320.867 573.318C315.583 573.318 311.194 576.045 311.194 581.457C311.194 587.594 316.393 589.17 320.867 589.81C324.66 590.321 327.771 591.471 327.771 595.349C327.771 599.057 325.129 600.719 320.867 600.719C317.671 600.719 315.072 599.866 313.154 594.753L309.958 596.116Z" fill="#082B2B"/>
<path d="M341.508 596.116C343.51 602.295 347.985 604 352.417 604C358.298 604 362.942 601.187 362.942 595.349C362.942 588.702 357.488 587.082 352.417 586.23C349.263 585.676 346.366 584.781 346.366 581.457C346.366 577.835 349.221 576.599 352.417 576.599C355.57 576.599 357.786 577.835 359.278 582.352L362.474 580.988C360.854 575.321 356.721 573.318 352.417 573.318C347.133 573.318 342.743 576.045 342.743 581.457C342.743 587.594 347.942 589.17 352.417 589.81C356.209 590.321 359.32 591.471 359.32 595.349C359.32 599.057 356.678 600.719 352.417 600.719C349.221 600.719 346.621 599.866 344.704 594.753L341.508 596.116Z" fill="#082B2B"/>
<path d="M378.895 600.293V573.787L375.273 573.744V603.574H393.938V600.293H378.895Z" fill="#082B2B"/>
<path d="M421.78 573.744V593.645C421.78 598.418 419.308 600.719 415.345 600.719C411.382 600.719 408.91 598.418 408.91 593.645V573.744H405.288V593.687C405.288 600.335 409.635 604 415.345 604C421.055 604 425.402 600.335 425.402 593.687V573.744H421.78Z" fill="#082B2B"/>
<path d="M453.116 573.744L453.287 596.585L439.949 573.744H437.051V603.574H440.673L440.502 580.733L453.841 603.574H456.738V573.744H453.116Z" fill="#082B2B"/>
<path d="M476.399 573.744H468.515V603.574H476.399C485.177 603.574 488.373 596.628 488.373 588.659C488.373 580.69 485.305 573.744 476.399 573.744ZM476.271 600.293H472.137V577.025H476.271C483.132 577.025 484.751 582.736 484.751 588.659C484.751 594.582 483.132 600.293 476.271 600.293Z" fill="#082B2B"/>
<path d="M517.877 603.574H521.712L511.357 573.744H508.672L498.275 603.574H502.11L505.093 594.582H514.894L517.877 603.574ZM506.158 591.344L509.993 579.71L513.829 591.344H506.158Z" fill="#082B2B"/>
</svg>
